<svg xmlns="http://www.w3.org/2000/svg" width="881.425" height="297.695" xmlns:v="https://vecta.io/nano"><path d="M618.861 191.764c-14.686 4.34-57.1-2.205-30.45 22.772 13.66 41.262 66.152 19.864 90.948 31.14 16.15-7.479 13.463-25.065-3.274-9.47-20.97 3.134-58.673-30.458-57.224-44.442z" fill="#024aa5"/><path d="M676.194 169.097l1.334 1.333zm38.667 0c-9.871 27.323-72.437 21.064-59.047 51.948 32.566 22.928 70.904-15.715 65.022-49.102l-2.31-2.193zm10.667 0c-1.666 4.998-1.835 5.504 0 0zm2.666 0l1.334 1.333zm-138.666-4c-47.88 25.325 44.949 49.25 20.296 7.523-4.358-6.161-12.868-10.654-20.296-7.523z" fill="#0880d4"/><path d="M561.528 154.43c-3.251 17.288 18.54 40.1 24.671 13.668 42.821-14.006-13.457-11.7-24.671-13.668zm22.666 0l1.334 1.334z" fill="#2e84d2"/><path d="M737.528 138.43c-31.31 18.788-71.624 26.455-85.329 65.804-17.508 17.782 26.116 29.566-1.61 11.84 10.521-26.448 53.195-27.106 74.346-46.781 11.288-5.912 13.974-19.32 12.593-30.863z" fill="#028de0"/><path d="M590.861 135.764c-36.47 21.38 29.367 36.013 0 0z" fill="#338ddb"/><path d="M576.194 110.43c-11.29 14.266-36.079 50.611-1.036 44.363 15.481-9.87 19.27-35.12 1.036-44.363z" fill="#4f86d0"/><path d="M570.861 87.764c-12.326 10.024-35.321 57.812-3.682 34.75 12.022-9.427 14.693-23.047 3.682-34.75z" fill="#6a81c7"/><path d="M562.861 74.43c9.646 16.071-36.687 57.966-1.63 29.07 6.734-7.651 14.83-22.795 1.63-29.07z" fill="#7380be"/><path d="M558.861 63.764c-14.44 9.723-31.454 63.861-1.362 34.63 8.008-9.446 12.705-25.538 1.362-34.63z" fill="#7876bb"/><path d="M544.194 37.097c2.927 15.012-29.677 53.315-.903 51.632 16.269-13.716 21.584-39.107.903-51.632z" fill="#8f72b3"/><path d="M537.528 31.764c-11.312 13.401-11.582 54.753 5.391 20.325 3.812-6.805 2.785-17.248-5.391-20.325z" fill="#9867a8"/><path d="M510.861 7.764c-13.716 20.832 19.727 79.5 25.57 31.885 5.783-17.659-9.05-30.987-25.57-31.885z" fill="#af6aa3"/><path d="M457.528 11.764c-23.648 17.774-46.496 39.273-59.274 66.345 20.25-30.089 27.07-7.35 28.54 13.086 18.7-21.608 50.212-44.756 36.405-74.523 11.26-11.036 10.616-5.676-5.671-4.908z" fill="#ef6d8d"/><path d="M466.861 13.097c-14.067 21.392 14.413 23.338 24.317 14.676 27.026 19.333 27.844-40.613-3.383-25.215-7.65 1.349-16.699 3.139-20.934 10.539z" fill="#d16996"/><path d="M873.528 231.764c-.616 9.285 18.072.69 0 0z" fill="#092972"/><path d="M861.528 229.097c-21.685 9.994 20.85 7.497 0 0z" fill="#0f418f"/><path d="M778.861 179.764l1.333 1.333zm5.333 0l1.334 1.333zm9.334 0c-15.777 8.672 28.016 44.193-8.467 21.801-9.724-12.296-56.022-22.791-25.715-1.371 26.064 10.642 70.37 49.103 91.352 27.784-23.119-13.008-36.884-33.022-57.17-48.214z" fill="#024aa5"/><path d="M734.861 169.097c-27.486 13.125 11.634 35.656 15.469 16.4 21.584 6.911 27.926 7.29 3.643-3.427-7.046-3.214-13.396-7.786-19.112-12.973zm21.333-37.333c-6.673 9.855-19.324 11.781.643 22.42 11.989 14.448 27.514 43.225 40.24 30.088 31.497 21.768-30.152-55.001-16.409-35.047-7.98-6.074-16.982-10.731-24.474-17.461z" fill="#045cb4"/><path d="M750.861 123.764c-10.294 24.821 19.574 5.488 29.017 24.345-5.364-10.403-15.015-26.9-29.017-24.345z" fill="#0268c0"/><path d="M804.194 101.097l1.334 1.333zm17.334 0l1.333 1.333zm5.333 0c-25.48 11.472 9.055 77.366 18.208 50.225 19.877 6.907 28.623 6.792 12.135-12.89-8.405-13.736-19.189-25.798-30.343-37.335zm6.667 0l1.333 1.333z" fill="#045cb4"/><path d="M805.528 79.764c1.203 4.395 6.195-1.791 0 0zm5.333 0c-21.38 10.714 8.653 60.412 14.569 24.812 28.032 9.701-10.362-22.68-14.57-24.812z" fill="#0268c0"/><path d="M761.528 69.097l1.333 1.333zm25.333 1.333c-17.764 19.218 23.638 34.785 22.294 13.456 19.487-1.728-19.56-16.937-22.294-13.456z" fill="#0880d4"/><path d="M669.528 181.097c14.83-39.754 73.977-17.801 80.109-55.314 8.018-19.784 5.832-48.666 13.907-55.508-48.337 17.505-68.316 70.834-94.016 110.822z" fill="#0399e8"/><path d="M773.528 66.43c-24.031 2.057-25.094 58.495-1.958 26.03 15.342-11.73 37.992-29.03 1.958-26.03z" fill="#028de0"/><path d="M574.861 242.43c-9.711 24.685 55.938 20.435 16.427 8.227zm40.444-3.111l.445.89zm28.89.445c-2.34 23.18 58.194-4.066 14.31 2.633-4.605-1.453-9.272-4.11-14.31-2.633zm11.555-.89l.889.445zm3.11-.444l1.334 1.334zm13.334 0l1.334 1.334zm14.667 0c-1.652 3.304-1.033 2.066 0 0z" fill="#0f418f"/><path d="M602.861 235.764c8.401 27.142 77.359 26.702 65.027 11.662-22.878 1.617-45.233-.882-65.027-11.662z" fill="#08368d"/><path d="M541.528 225.097c-6.452 27.257 56.982 33.75 21.302 9.373-7.19-3.696-11.886-21.943-21.302-9.373z" fill="#303a90"/><path d="M545.528 213.097c.576 25.592 28.58 17.097 0 0z" fill="#31448f"/><path d="M517.528 209.097c-3.648 25.329 38.223 19.694 12.76 13.941-1.774-5.372-4.532-18.425-12.76-13.941z" fill="#513887"/><path d="M526.861 190.43c.724 17.717 9.329 31.681 6.084 32.218 28.767.704 4.747-22.63-6.084-32.218z" fill="#51408e"/><path d="M492.194 185.097l1.334 1.333zm2.667 0c-19.556 22.585 44.41 41.074 12.761 10.616-2.994-4.915-8.612-6.95-12.761-10.616zm2.667 0l1.333 1.333z" fill="#713982"/><path d="M510.861 158.43c-11.2 16.792 23.674 60.021 17.3 20.543-7.51-5.544-5.005-21.062-17.3-20.543z" fill="#71418a"/><path d="M466.861 157.097c-26.622 24.88 39.916 51.725 18.932 18.43-5.425-6.989-12.164-12.794-18.932-18.43z" fill="#943979"/><path d="M440.194 142.43c5.327 13.238 3.656 49.6 25.125 26.008 1.658-13.87-11.96-25.69-25.125-26.008z" fill="#ac3565"/><path d="M382.861 161.097c24.796-.097 91.407 16.38 51.104-24.433-20.281-12.677-48.27.386-51.104 24.433z" fill="#af2c5c"/><path d="M349.528 131.764c-42.7 56.615-90.472 116.939-161.833 137.072-47.109 12.951-108.42 5.39-137.848-37.8-11.1-2.165-22.648 12.885-24.136 2.625-22.104-14.444 3.668 38.077 23.468 40.331 46.19 29.848 106.181 27.308 157.807 15.205 53.729-15.57 104.321-44.919 138.486-89.995 14.215-23.865 48.568-42.856 49.293-71.072z" fill="#ff424b"/><path d="M497.528 118.43c2.391 15.435 5.101 80.975 16.392 34.134-.85-13.258-12.402-22.053-16.392-34.134z" fill="#8c4387"/><path d="M466.861 74.43c-1.465 19.094-13.917 64.677 18.919 59.033 12.646-22.647 4.231-48.581-18.919-59.033zm6.667 0l1.333 1.334z" fill="#af3974"/><path d="M450.861 61.097c-11.436 17.328-27.014 31.237-.717 39.361 8.565-7.01 10.759-34.14.717-39.361z" fill="#d13566"/><path d="M409.528 57.097l1.333 1.333zm6.666 9.333c-23.192 11.236-63.43 43.474-57.307 62.942 30.47 7.479 64.79-12.403 65.521-44.36.858-5.264-4.228-41.81-8.214-18.582zm6.667-9.333l1.333 1.333zm4 0l1.333 1.333z" fill="#f86c81"/><path d="M110.861 191.764c-11.581 40.97 53.826 42.239 79.309 30.678 5.835-20.953-42.732 6.003-56.788-10.94-9.547-3.936-18.775-9.578-22.521-19.738z" fill="#ff424b"/><path d="M140.194 122.43c-33.823 7.952-60.13 46.005-41.324 79.047 10.71 12.454 10.082-18.67 20.079 2.028 12.147 8.485 62.154 18.176 25.122 7.184-47.286-11.947-35.043-82.785 12.255-80.368 22.104-1.788 42.547 21.922 30.522 42.897 24.641-30.608-18.068-59.349-46.654-50.788z" fill="#fe4a55"/><path d="M489.528 103.764c-4.724 13.878-4.696 64.529 10.98 46.6 1.464-15.983.391-34.108-10.98-46.6z" fill="#943979"/><path d="M456.194 66.43c3.8 13.567-12.061 59.512 10.244 26.365 7.267-10.385 4.755-25.709-10.244-26.365z" fill="#cc3a6d"/><path d="M124.194 63.764c-45.045.179-85.33 32.586-108.256 69.463-20.865 30.31-20.688 71.985-2.719 103.372-.568 5.16 10.307-18.858 5.551-2.181 18.584 6.447 29.685-14.939 43.674 11.646-2.745-13.382-37.537-59.071-18.217-89.32 13.55-35.4 41.828-65.035 78.836-75.376 45.135-15.929 109.08 5.653 115.643 58.423 17.188 40.556-41.161 73.892-55.305 75.749 31.522 16.417 64.853-34.155 60.706-68.96 2.468-58.784-67.476-100.216-119.913-82.816z" fill="#fe4a55"/></svg>